<?xml version="1.0" encoding="UTF-8" standalone="no"?>
<!-- Created with Inkscape (http://www.inkscape.org/) -->

<svg
   xmlns:dc="http://purl.org/dc/elements/1.1/"
   xmlns:cc="http://creativecommons.org/ns#"
   xmlns:rdf="http://www.w3.org/1999/02/22-rdf-syntax-ns#"
   xmlns:svg="http://www.w3.org/2000/svg"
   xmlns="http://www.w3.org/2000/svg"
   xmlns:sodipodi="http://sodipodi.sourceforge.net/DTD/sodipodi-0.dtd"
   xmlns:inkscape="http://www.inkscape.org/namespaces/inkscape"
   width="40.107357mm"
   height="8.3502493mm"
   viewBox="0 0 40.107357 8.3502493"
   version="1.1"
   id="svg8"
   inkscape:version="0.92.4 (f8dce91, 2019-08-02)"
   sodipodi:docname="travelindo.svg">
  <defs
     id="defs2" />
  <sodipodi:namedview
     id="base"
     pagecolor="#ffffff"
     bordercolor="#666666"
     borderopacity="1.0"
     inkscape:pageopacity="0.0"
     inkscape:pageshadow="2"
     inkscape:zoom="1.4"
     inkscape:cx="23.273267"
     inkscape:cy="-96.062727"
     inkscape:document-units="mm"
     inkscape:current-layer="layer1"
     showgrid="false"
     inkscape:window-width="1366"
     inkscape:window-height="717"
     inkscape:window-x="0"
     inkscape:window-y="27"
     inkscape:window-maximized="1" />
  <metadata
     id="metadata5">
    <rdf:RDF>
      <cc:Work
         rdf:about="">
        <dc:format>image/svg+xml</dc:format>
        <dc:type
           rdf:resource="http://purl.org/dc/dcmitype/StillImage" />
        <dc:title></dc:title>
      </cc:Work>
    </rdf:RDF>
  </metadata>
  <g
     inkscape:label="Layer 1"
     inkscape:groupmode="layer"
     id="layer1"
     transform="translate(-113.54103,-131.54924)">
    <g
       id="g4567">
      <path
         d="m 117.75319,132.42765 v 0.81492 h -1.62983 v 6.51933 h -0.9525 v -6.51933 h -1.62983 v -0.81492 z"
         style="font-style:normal;font-variant:normal;font-weight:normal;font-stretch:normal;font-size:10.58333302px;line-height:1.25;font-family:'Ubuntu Condensed';-inkscape-font-specification:'Ubuntu Condensed, ';letter-spacing:0px;word-spacing:0px;fill:#000000;fill-opacity:1;stroke:none;stroke-width:0.26458332"
         id="path4526"
         inkscape:connector-curvature="0" />
      <path
         d="m 120.65154,135.03115 q -0.33867,-0.14816 -0.762,-0.14816 -0.39158,0 -0.73025,0.13758 v 4.74133 h -0.91017 v -5.31283 q 0.30692,-0.14817 0.6985,-0.24342 0.40217,-0.10583 0.87842,-0.10583 0.254,0 0.508,0.0318 0.254,0.0317 0.47625,0.11642 z"
         style="font-style:normal;font-variant:normal;font-weight:normal;font-stretch:normal;font-size:10.58333302px;line-height:1.25;font-family:'Ubuntu Condensed';-inkscape-font-specification:'Ubuntu Condensed, ';letter-spacing:0px;word-spacing:0px;fill:#000000;fill-opacity:1;stroke:none;stroke-width:0.26458332"
         id="path4528"
         inkscape:connector-curvature="0" />
      <path
         d="m 121.64108,134.32207 q 0.27517,-0.11642 0.58208,-0.17992 0.30692,-0.0741 0.66675,-0.0741 0.74084,0 1.2065,0.46567 0.46567,0.45508 0.46567,1.42875 v 3.683 q -0.381,0.10583 -0.78317,0.16933 -0.39158,0.0635 -0.77258,0.0635 -0.381,0 -0.71967,-0.0952 -0.32808,-0.0953 -0.58208,-0.30692 -0.24342,-0.21166 -0.39158,-0.52916 -0.14817,-0.32809 -0.14817,-0.79375 0,-0.43392 0.127,-0.75142 0.13758,-0.32808 0.37042,-0.53975 0.23283,-0.22225 0.55033,-0.32808 0.3175,-0.11642 0.68792,-0.11642 0.34925,0 0.77258,0.0847 v -0.508 q 0,-0.61384 -0.24342,-0.85725 -0.23283,-0.24342 -0.67733,-0.24342 -0.24342,0 -0.46567,0.0529 -0.21166,0.0423 -0.45508,0.14816 z m 0.43392,3.82058 q 0,0.48684 0.254,0.71967 0.254,0.23283 0.71966,0.23283 0.28575,0 0.62442,-0.0741 v -1.76742 q -0.3175,-0.0847 -0.62442,-0.0847 -0.20108,0 -0.381,0.0529 -0.17991,0.0423 -0.3175,0.15875 -0.127,0.10584 -0.20108,0.29634 -0.0741,0.17991 -0.0741,0.46566 z"
         style="font-style:normal;font-variant:normal;font-weight:normal;font-stretch:normal;font-size:10.58333302px;line-height:1.25;font-family:'Ubuntu Condensed';-inkscape-font-specification:'Ubuntu Condensed, ';letter-spacing:0px;word-spacing:0px;fill:#000000;fill-opacity:1;stroke:none;stroke-width:0.26458332"
         id="path4530"
         inkscape:connector-curvature="0" />
      <path
         d="m 127.33309,138.69299 q 0.127,-0.42334 0.26459,-0.99484 0.14816,-0.5715 0.28575,-1.17475 0.13758,-0.61383 0.254,-1.21708 0.127,-0.60325 0.21166,-1.10067 h 0.91017 q -0.13758,0.6985 -0.32808,1.47109 -0.17992,0.77258 -0.381,1.524 -0.1905,0.74083 -0.39159,1.40758 -0.20108,0.66675 -0.37041,1.15358 h -0.94192 q -0.16933,-0.48683 -0.37042,-1.15358 -0.20108,-0.66675 -0.40216,-1.40758 -0.1905,-0.75142 -0.381,-1.524 -0.17992,-0.77259 -0.3175,-1.47109 h 0.96308 q 0.0847,0.49742 0.20108,1.10067 0.127,0.60325 0.254,1.21708 0.13759,0.60325 0.27517,1.17475 0.13758,0.5715 0.26458,0.99484 z"
         style="font-style:normal;font-variant:normal;font-weight:normal;font-stretch:normal;font-size:10.58333302px;line-height:1.25;font-family:'Ubuntu Condensed';-inkscape-font-specification:'Ubuntu Condensed, ';letter-spacing:0px;word-spacing:0px;fill:#000000;fill-opacity:1;stroke:none;stroke-width:0.26458332"
         id="path4532"
         inkscape:connector-curvature="0" />
      <path
         d="m 130.75912,137.25365 q 0.0106,0.40217 0.0741,0.74084 0.0635,0.32808 0.20108,0.58208 0.14817,0.24342 0.381,0.381 0.24342,0.13758 0.61384,0.13758 0.30691,0 0.56091,-0.0847 0.26459,-0.0952 0.381,-0.15875 l 0.16934,0.73025 q -0.13759,0.0953 -0.46567,0.20108 -0.3175,0.11642 -0.762,0.11642 -0.58208,0 -0.98425,-0.21167 -0.39158,-0.21167 -0.64558,-0.59267 -0.24342,-0.381 -0.34925,-0.91016 -0.10584,-0.52917 -0.10584,-1.16417 0,-1.53458 0.508,-2.24367 0.508,-0.70908 1.34409,-0.70908 0.94191,0 1.3335,0.70908 0.39158,0.70909 0.39158,1.98967 0,0.11642 0,0.24342 0,0.11641 -0.0106,0.24341 z m 0.92075,-2.413 q -0.45509,0 -0.66675,0.45509 -0.20109,0.45508 -0.24342,1.21708 h 1.68275 q 0,-0.77258 -0.15875,-1.21708 -0.15875,-0.45509 -0.61383,-0.45509 z"
         style="font-style:normal;font-variant:normal;font-weight:normal;font-stretch:normal;font-size:10.58333302px;line-height:1.25;font-family:'Ubuntu Condensed';-inkscape-font-specification:'Ubuntu Condensed, ';letter-spacing:0px;word-spacing:0px;fill:#000000;fill-opacity:1;stroke:none;stroke-width:0.26458332"
         id="path4534"
         inkscape:connector-curvature="0" />
      <path
         d="m 136.18357,139.86774 q -0.78316,-0.0212 -1.12183,-0.381 -0.33867,-0.37042 -0.33867,-1.16417 v -6.61458 l 0.91017,-0.15875 v 6.7945 q 0,0.37041 0.14817,0.53975 0.14816,0.15875 0.51858,0.22225 z"
         style="font-style:normal;font-variant:normal;font-weight:normal;font-stretch:normal;font-size:10.58333302px;line-height:1.25;font-family:'Ubuntu Condensed';-inkscape-font-specification:'Ubuntu Condensed, ';letter-spacing:0px;word-spacing:0px;fill:#000000;fill-opacity:1;stroke:none;stroke-width:0.26458332"
         id="path4536"
         inkscape:connector-curvature="0" />
      <path
         d="m 137.37089,132.42765 h 0.9525 v 7.33425 h -0.9525 z"
         style="font-style:normal;font-variant:normal;font-weight:normal;font-stretch:normal;font-size:10.58333302px;line-height:1.25;font-family:'Ubuntu Condensed';-inkscape-font-specification:'Ubuntu Condensed, ';letter-spacing:0px;word-spacing:0px;fill:#000000;fill-opacity:1;stroke:none;stroke-width:0.26458332"
         id="path4538"
         inkscape:connector-curvature="0" />
      <path
         d="m 140.03591,134.3644 q 0.39158,-0.11641 0.84666,-0.1905 0.45509,-0.0847 0.83609,-0.0847 0.41275,0 0.75141,0.11641 0.33867,0.10584 0.5715,0.37042 0.24342,0.26458 0.37042,0.71967 0.13758,0.4445 0.13758,1.11125 v 3.35491 h -0.91016 v -3.28083 q 0,-0.8255 -0.21167,-1.2065 -0.21167,-0.381 -0.79375,-0.381 -0.30692,0 -0.68792,0.10583 v 4.7625 h -0.91016 z"
         style="font-style:normal;font-variant:normal;font-weight:normal;font-stretch:normal;font-size:10.58333302px;line-height:1.25;font-family:'Ubuntu Condensed';-inkscape-font-specification:'Ubuntu Condensed, ';letter-spacing:0px;word-spacing:0px;fill:#000000;fill-opacity:1;stroke:none;stroke-width:0.26458332"
         id="path4540"
         inkscape:connector-curvature="0" />
      <path
         d="m 147.53337,135.04174 q -0.30692,-0.16934 -0.65617,-0.16934 -0.26458,0 -0.46566,0.10584 -0.20109,0.10583 -0.34925,0.34925 -0.13759,0.24341 -0.21167,0.64558 -0.0741,0.40217 -0.0741,0.99483 0,1.143 0.29633,1.64042 0.30692,0.48683 0.92075,0.48683 0.11642,0 0.254,-0.0106 0.13758,-0.0212 0.28575,-0.0635 z m 0,-3.33375 0.91017,-0.15875 v 8.0645 q -0.29634,0.127 -0.67734,0.20108 -0.381,0.0847 -0.77258,0.0847 -1.143,0 -1.66158,-0.73025 -0.508,-0.73025 -0.508,-2.20134 0,-0.66675 0.10583,-1.19591 0.11642,-0.53975 0.34925,-0.91017 0.24342,-0.381 0.61383,-0.58208 0.37042,-0.21167 0.87842,-0.21167 0.24342,0 0.41275,0.0529 0.17992,0.0423 0.34925,0.127 z"
         style="font-style:normal;font-variant:normal;font-weight:normal;font-stretch:normal;font-size:10.58333302px;line-height:1.25;font-family:'Ubuntu Condensed';-inkscape-font-specification:'Ubuntu Condensed, ';letter-spacing:0px;word-spacing:0px;fill:#000000;fill-opacity:1;stroke:none;stroke-width:0.26458332"
         id="path4542"
         inkscape:connector-curvature="0" />
      <path
         d="m 153.64839,136.98907 q 0,0.65617 -0.11642,1.19592 -0.11642,0.52916 -0.35983,0.91016 -0.23284,0.381 -0.60325,0.59267 -0.35984,0.21167 -0.85725,0.21167 -0.49742,0 -0.86784,-0.21167 -0.37041,-0.21167 -0.61383,-0.59267 -0.23283,-0.381 -0.34925,-0.91016 -0.11642,-0.53975 -0.11642,-1.19592 0,-0.64558 0.11642,-1.18533 0.11642,-0.53975 0.34925,-0.92075 0.24342,-0.39159 0.61383,-0.60325 0.37042,-0.21167 0.86784,-0.21167 0.49741,0 0.85725,0.21167 0.37041,0.21166 0.60325,0.60325 0.24341,0.381 0.35983,0.92075 0.11642,0.53975 0.11642,1.18533 z m -0.9525,0 q 0,-0.46567 -0.0529,-0.84667 -0.0529,-0.39158 -0.16933,-0.66675 -0.11642,-0.28575 -0.30692,-0.43391 -0.1905,-0.15875 -0.45508,-0.15875 -0.27517,0 -0.46567,0.15875 -0.17992,0.14816 -0.30692,0.43391 -0.11641,0.27517 -0.16933,0.66675 -0.0529,0.381 -0.0529,0.84667 0,0.46567 0.0529,0.85725 0.0529,0.381 0.16933,0.65617 0.127,0.27516 0.30692,0.43391 0.1905,0.14817 0.46567,0.14817 0.26458,0 0.45508,-0.14817 0.1905,-0.15875 0.30692,-0.43391 0.11641,-0.27517 0.16933,-0.65617 0.0529,-0.39158 0.0529,-0.85725 z"
         style="font-style:normal;font-variant:normal;font-weight:normal;font-stretch:normal;font-size:10.58333302px;line-height:1.25;font-family:'Ubuntu Condensed';-inkscape-font-specification:'Ubuntu Condensed, ';letter-spacing:0px;word-spacing:0px;fill:#000000;fill-opacity:1;stroke:none;stroke-width:0.26458332"
         id="path4544"
         inkscape:connector-curvature="0" />
    </g>
  </g>
</svg>
